<?xml version="1.0" encoding="utf-8"?>
<!-- Generator: Adobe Illustrator 23.0.3, SVG Export Plug-In . SVG Version: 6.00 Build 0)  -->
<svg version="1.1" xmlns="http://www.w3.org/2000/svg" xmlns:xlink="http://www.w3.org/1999/xlink" x="0px" y="0px"
	 viewBox="0 0 403.4 140.6" style="enable-background:new 0 0 403.4 140.6;" xml:space="preserve">
<style type="text/css">
	.st0{fill:none;}
	.st1{fill:#E60012;}
</style>
<g id="レイヤー_1">
</g>
<g id="_x3C_レイヤー_x3E_">
	<g>
		<g>
			<path class="st0" d="M381.6,113.8c0.6-0.2,1.9,0.5,1.9-0.6c-1.6-0.4-3.8,0.1-3.8-1.5c-0.1-1.8,2.5-0.9,3.5-2.1
				c-1.8-0.2-2.6-1.3-4.6-1.3c-0.3,2.6,1.2,4.2,0.6,6.6C380.2,115,380.7,114.1,381.6,113.8z"/>
			<path class="st0" d="M387.7,127.9c-0.5,0.7-1,1.3-1.5,2.1c1.3-0.1,2.3,0.3,3.7,0.1C389.3,129.3,388.8,128.3,387.7,127.9z"/>
			<path class="st0" d="M383.6,116.9l-2.5-0.3C381.5,117.2,382.9,117.5,383.6,116.9z"/>
			<path class="st0" d="M380.2,127.1c0.3,0.8,0,2.3,0.4,2.9c1.6-0.1,1.7-1.7,3.8-1.3c1-1,1.9-3.5,0.7-5
				C382.3,123.6,381.6,125.7,380.2,127.1z"/>
			<path class="st0" d="M394,113.7c0.2,0.9,2,1.2,2.4,0.3C395.4,114,394.9,113.4,394,113.7z"/>
			<path class="st0" d="M383,106c-0.4-0.1-1.3-0.1-1.8,0.1c0.5,0.4,1.1,0.6,1.8,0.7C383,106.6,383,106.3,383,106z"/>
			<path class="st1" d="M403.1,124.1c-0.2-2.6-0.4-4.3-0.4-6.9c0-3.9,0.6-10.7-1.5-13.1c-2.2-2.5-8.8-2-13.5-1.8
				c-3.6,0.2-7.9-0.1-9.6,1.8c-1.2,1.4-1.1,4.1,0.1,5.7c-1.6,1.3-0.4,3.8-0.3,6c0.4,6.3-1.2,15.7,3.1,17.1c1.6,0.5,3.7-0.1,5.3-0.1
				c5.3-0.2,14.8,2.1,16.6-1.9C403.7,129.2,403.3,126.1,403.1,124.1z M383,106c0,0.3,0,0.6,0,0.9c-0.7-0.1-1.3-0.4-1.8-0.7
				C381.7,106,382.5,105.9,383,106z M378.7,108.4c1.9,0,2.8,1.1,4.6,1.3c-1,1.2-3.6,0.3-3.5,2.1c0,1.6,2.2,1,3.8,1.5
				c-0.1,1.1-1.3,0.4-1.9,0.6c-1,0.3-1.5,1.1-2.4,1.2C379.9,112.6,378.4,111,378.7,108.4z M383.6,116.9c-0.7,0.6-2.1,0.3-2.5-0.3
				C381.3,115.8,383.6,116,383.6,116.9z M384.4,128.7c-2.1-0.4-2.2,1.2-3.8,1.3c-0.5-0.6-0.1-2.1-0.4-2.9c1.4-1.4,2.2-3.4,5-3.4
				C386.4,125.1,385.4,127.7,384.4,128.7z M386.2,130c0.5-0.7,1-1.4,1.5-2.1c1.1,0.3,1.6,1.3,2.2,2.2
				C388.5,130.3,387.5,129.9,386.2,130z M401.5,129.6c-0.8,0.2-1.3,0.5-2.4,0.4c-0.3-0.4,0.5-0.9,0.7-1.5c0.6-1.7,0.2-4.9-2.2-4.7
				c-1.8,0.2-1.7,2.6-4.3,2.4c0.2-1.3-0.2-1.9-1-2.2c-2.2,0.8-2,4.7,0.2,5c1.9,0.2,2.3-1.8,3.7-2.5c0.6,5.9-7.5,2.2-8.1-0.6
				c1.5-5.2-5.2-6.8-8.4-4.3c0-1.1,0.1-2.2-0.1-3.1c1.5-0.1,2.3,0.5,3.5,0.1c0.5-0.1,1.3-0.9,1.3-0.9c0.8,0,0.9,1.4,1.9,1.3
				c2.6-1.8-1.4-3.2-1.2-5.7c2.3,0.7,2.9-1.1,2.2-2.9c-0.6-0.4-1.9-0.2-2.6-0.4c0.8-1.2,3.6-1.6,2.5-3.7c-1.2,0-1.3,0.9-2.6,0.7
				c0-0.4,0-0.8,0-1.2c1-0.3,2.7-0.1,4-0.1c0.9,2.9-0.8,8.4,1.5,10c0.6-0.1,1-0.4,1.5-0.6c0-3.4-0.3-6.5-0.4-9.7
				c2-1.6,6.5-1.3,9-0.3c-0.4,1,0.7,1.3,0.6,2.4c-0.8,0.4-0.9-0.8-1.8-0.7c0.2,1.6,0.8,2.6,2.1,3.1c-0.1,1.1,0.2,1.7,0.2,2.8
				c-1.1,0.3-2.3,0-3.4-0.2c-0.1-0.6-0.6-0.8-0.4-1.6c0.7-0.4,1.1,0.4,1.8,0.4c0.8-0.9-0.1-2.2-0.6-2.8c-0.6,0.2-0.9,0.6-1.8,0.4
				c0-0.5,0.4-0.6,1-0.6c-0.1-0.8,0-0.9,0-1.8c-1.5-0.2-5-1.5-5.3,0.3c-0.2,1.2,1.1,1.6,2.8,1.5c-0.7,0.9-2.3,0.4-2.2,1.8
				c0.1,1.8,2.9,0.1,3.2,2.1c-1.3-0.1-2.9-0.2-3.2,1.2c-0.6,2.7,3.5,3.1,4.6,1c1.4-0.1,2.2,0.4,3.7,0.3
				C401.1,120,402.8,124.8,401.5,129.6z M396.3,114c-0.4,0.9-2.2,0.6-2.4-0.3C394.9,113.4,395.4,114,396.3,114z"/>
			<path class="st1" d="M396.6,118.5c0.9-0.2,1.3-0.8,2.4-0.9c0,0.3,0.5,0.3,0.4,0.7c-0.2,0.9-1.4,0.9-1.2,2.2
				c2.9,0.5,2.7-3.4,1.5-4.6C398,115.2,396.3,116.3,396.6,118.5z"/>
			<path class="st1" d="M381.1,116.6l2.5,0.3C383.6,116,381.3,115.8,381.1,116.6z"/>
			<path class="st1" d="M392.1,120.4c1.7-0.3,3.9-0.7,3.1-3.1c-0.2-0.2-0.9-0.6-1.3-0.4c-1.8,0.6-6.5,2.4-5.4,4.3
				c0.7,0.3,1.2,1.3,1.9,1.6c0.8,0.4,7.2,1.9,7.3,0C397.9,120.7,392.9,122,392.1,120.4z"/>
		</g>
		<g>
			<path d="M374.7,115.9c-3.9-3-1.4-8.7-1.5-13.8c0-2.8-1.4-4.9-0.9-7.4c0-0.3-0.7-0.1-0.6-0.6c-0.1-2.2-0.6-3.6-1-5.6
				c-0.3-1.3-0.6-3.3-2.1-3.2c2.3,7.6,2.8,21.6-5.1,23.4c1.1,0.6,1.9,1.5,2.8,2.4c-3,4.4-9.1,5.6-16.3,5.7c0.3,0.2,1.1,0,1.2,0.4
				c-0.5,0.1-1.1,0.1-1.2,0.6c0.7,0.2,1.3-0.4,1.8,0c-0.4,1.2-2.8,0.4-3.2,1.5c1.4-0.1,2.8-0.8,4.3-0.3c-2.8,0.7-6,1-9.1,1.5
				c0-0.5,1-0.1,0.9-0.7c-1.4,0.3-2.7,0.6-4.3,0.7c0.7,0.7,2.8-0.1,3.4,0.6c-0.6,0-0.8,0.3-1.2,0.4c0.1-0.1,0.3-0.5-0.1-0.4
				c-2.6,1-5.6,1.4-9.3,1c2,1.1,5.6,0.2,8.1,0.4c-1.5,0.3-3.1,0.5-4.3,1.2c0.4,0,1.1-0.4,1.5,0c-3.1,0.8-8.4-0.4-11,0.9
				c0.6,0.1,1.6-0.2,1.9,0.1c-2.1-0.1-4.6,0.3-6-0.4c0.5,0,0.9-0.1,1-0.4c-4.3-0.6-9.6-0.2-13.5-1.2c0.3-0.1,0.9,0.2,0.7-0.3
				c-1.1-0.1-2.5,0-3.2-0.4c4.3,0.2,8.1,0.3,12.5,0.2c-8.7-0.5-17.7-0.8-23.7-4c-0.3,0.3-1.2-0.1-1.6-0.1c-0.1-0.4,0.3-0.3,0.3-0.6
				c-2,0.4-3.3-0.3-5.1-0.7c-1.3-0.3-2.7-0.5-4-0.7c-5.6-0.9-9.8-2.5-14.1-4.4c-2.2-0.9-4.7-1.5-6-3.2c1.2,0.8,3.1,0.9,4.6,1.5
				c-0.2-1.2-2-0.8-2.5-1.8c-6.1-1.9-10.2-5.8-16-7.9c0.3-0.3-0.2-0.6-0.3-0.9c-4.6-2.9-10.1-5.7-13.4-9.4c0.9,0.7,1.9,1.9,3.1,1.8
				c-2.5-1.9-5.8-3.6-7.1-6.3c2.5,1.2,3.8,4.5,6.9,4.6c-4.3-2.2-7.2-5.9-9.3-10.4c0.5-0.8,0.9-1.7,0.9-3.1c-0.9-0.5-2.8-0.4-3.2-1.8
				c-0.1-0.4,0.2-1.1,0.1-1.5c-0.1-3.4-3.1-5.9-6.3-3.8c-2,0-3.1-0.8-4.3-1.6c0,0.9-1.6,0.9-2.4,0.6c-0.1,1.2-1.9,1.1-2.5,0.4
				c-0.7,0.2-0.9,0.9-1.8,0.9c6.4-12.1,12.7-24.4,24-31.6c-0.8-2.4,0.7-4.2,0.6-6.8c-1.1-0.2-0.8,1.1-1.8,1c-0.6-1.7,0.6-2.5,0.4-4
				c-0.4-3.2-5.6-3.3-6.8-6c-0.6,0.4-1.1-0.1-1.8-0.1c0.1-0.4-0.2-0.4-0.1-0.7c-2.2,1.2-2.8-2-4.4-2.4c-0.7-0.2-1.9,0.2-2.9,0.1
				c-2.6-0.2-4.9-0.8-7.6-0.3c0.1,1.5-1.7,2.2-2.9,1.5c-0.4,0.6-1,0.9-1.9,0.9c-0.1,0.3,0.4,0.5,0,0.6c-3.6,1.6-5.7,4.7-10.9,4.7
				c-0.6-0.3-0.9-0.8-1.9-0.6c-0.7,0.9-1.8,1.3-3.2,1.5c-0.6,1.3-1.4,2.4-3.1,2.6c-0.6,1.1-0.9,2.5-2.1,3.1
				c-0.7,4.8,2.1,7.2,3.2,10.6c0.2,0.3,0.8,0.2,0.9,0.6c-1.8,2.6-3.1,6.3-4.9,9c-0.4,0.6-1.2,1.5-1.9,1.6c1.5-2.9,3.9-5.7,4.6-9
				c-4.1,6.7-8.1,14.5-12.9,20c1-1.5,2.1-2.8,2.6-4.7c-4.2,6-8.2,13.1-14.3,16.8c0.3-3.6-0.9-6.4-0.4-9.7c0.3-2.4,1.4-5.1,0.9-8.1
				c4.3-5.9,8.6-12.1,12.5-18.2c1.3-2.1,2.5-4.6,4-6.3c1.9-2.1,4.7-3.1,4.3-6.9c0-0.5-0.8-0.2-0.7-0.7c1.3-4-1.4-6.1-3.5-7.6
				c1.4-3.8-2.7-6.3-6-4.9c-1.3-1.9-3.6-3.7-3.5-6.5c-0.7-0.4-1.6-0.6-2.1-1.2c-0.7-3.3-2.7-5.4-4.6-7.6c0.1,0.9-0.9-0.1-1.3,0
				c-0.1,0.7,0.7,1.4,0,1.8c-0.7,0.1-0.6-0.6-1.3-0.6c-4.1,6.1-2.3,18.1-3.2,27.4c1.2,0.4,0.8,3.2,0.3,4.1c-0.3-1.1,0.7-2.9-0.3-3.4
				c-0.3,3.6,0.3,7,0.4,10.6c-0.4,0.2-0.8-0.5-0.7,0.1c0,0.3,0,0.6,0,0.9c0,0.5,0.5-0.4,0.6,0.1c-0.5,1-1.2,1.8-1.8,2.8
				c0.6,0.3,0.6-0.8,0.9-0.3c0,1.8-1.2,2.4-2.5,2.8c-2.2,3.5-5.2,6.4-7.9,9.4c-0.2-0.2-0.5-0.2-0.7,0c-1.5,1.7-2.7,3.8-4.9,4.9
				c2.7-3.8,6.4-7.4,8.4-11.5c-4.8,5.6-9.8,11.2-16.5,15c-1.1-1.3-3-1.9-4.6-2.8c-0.2,2.3-3,2-5,2.5c-1,1.1-0.6,3.6-2.9,3.4
				c0.2,1.1-1.1,1.7-1.3,2.8c-0.1,0.7,0.3,1.5,0.1,2.2c-0.1,0.4-0.5,0.6-0.6,0.9c-0.3,0.9,0,2.1-0.7,2.8c0.8,0.2,0.3,1.7,0.7,2.2
				c-0.3,0.4-0.9,0.5-0.9,1.2c0.4,0.1,0.6,0.3,0.7,0.7c-0.2,0.4-0.9,0.2-0.7,0.9c0.8,0,1.2,0.4,1.8,0.6c-0.9,1.1,0.9,1.1,1,2.1
				c0,0.7-0.5,0.8-0.6,1.3c1.2,0.2,1.6,1.5,1.3,2.6c0.8,0.9,2,1.3,2.1,2.9c0.5,0.3,1.5,0.1,1.6,0.7c-0.7,0.1-0.4,1.2-0.3,1.8
				c0.9,0.1,1.3-0.2,1.9-0.4c-0.2,0.9,1,0.5,1.6,0.6c1.1,0.5,1.4,1.7,2.6,1.9c0.7-1.1,2.2-2.1,3.7-1.9c0.2,1-0.6,1.2-0.7,1.9
				c0.5,0.1,0.6-0.2,1-0.1c0.1,0.4,0,0.9,0.4,0.9c1,0,1.1-1,1.9-1.2c0.6,0,0.5,0.7,1.2,0.6c-0.1-0.9,0.7-0.5,1.2-0.4
				c0.7-0.4,0.9-1.3,1.8-1.6c0.3,0.3,0.5,0.8,0.9,1c1.3-2.9,2.8-5.5,5.4-6.9c-0.5-1.1,0.8-1.6,0.3-2.8c0.6-0.1,0.9-0.5,1.5-0.7
				c-0.2-0.9,0.7-1.4,0.9-2.1c0.1-0.5-0.1-1.2,0-1.8c0.3-2.1,1.8-4,2.9-5.6c1.2-1.7,2.1-3.7,3.7-4.6c0.5,3,0.3,6.6-0.9,8.7
				c-0.2,0.5,0.5,0.1,0.3,0.6c-1.5,3.1-2.9,6.3-4.4,9.3c-0.5-0.1-0.5,0.1-0.9,0.1c0,1.1-0.7,1.4-0.7,2.5c-2.5,2.4-5.6,2.6-7.9,4.4
				c-1.9,1.5-2.2,4-3.7,5.6c-0.1,0.5,0.5,0.2,0.4,0.6c-1.4,0.9-2.1,2.4-3.2,3.5c0.8,1.1-0.3,1.9-0.7,2.6c0.4,0.5,0.6,1.5,0.1,2.1
				c0.7-0.2,0.8,0.4,0.7,1c0.7,0.1,0.9-0.2,1.6-0.1c0.4,0.9-0.3,1.9,0.1,2.8c-0.4,0-0.8,0.1-0.7,0.6c0.2,0.3,0.9,0.1,1.3,0.1
				c2.2,2.7,3.6,7,6.9,8.1c2.7-1.4,7.1-0.7,9.1-2.8c0.6-0.7,0.6-2,1.6-2.1c0.1,2.5-1.8,3.1-1.6,5.7c-0.9,0.5-2.3,1.1-1.8,2.5
				c0.2,0.6,0.6-0.6,0.7-0.1c0,5,1.9,8,2.5,12.4c2.1,0.3,3.3,2.9,5.4,2.5c1.2-0.2,1.4-1.7,2.9-1.9c3.1-5.3-0.9-12.8,0.4-19.1
				c-1.6-1.7-0.6-6.5-1-10.6c-0.2-2.3-1.1-4.5,0.9-4.9c2.2,2.2,4.3,5,6.8,7.6c2.3,2.5,5.4,4.8,6.8,7.6c0.5,1-0.2,2.4,0.1,3.4
				c2.8,2.5,7.4,3.2,12.2,2.9c4.1-0.2,4.7-0.9,7.4-3.2c2.3-2.1,4.6-3.5,5.7-5.9c1.9-1.3,4.6-2.5,5.4-4.3c3.7-2.4,6.3-6,9.6-9
				c3.4,2.3,7.6,3.9,10.9,6.3c1.9,0.1,2.8,1,4.1,1.9c2.8,1.9,5.1,3.8,8.4,5c-0.1,0.6,0.6,0.4,0.6,0.9c3,0.2,4.6,2,6.5,3.5
				c1.3,1.1,3.6,0.7,4.9,2.2c0.6,0.1,0.5-0.5,1.2-0.3c0.7,0.3,1.1,1,1.6,1.5c2.2,0.1,3.2,1.1,4.9,1.8c3.8,1.6,7.8,2.6,11.5,4
				c5.1,2,10.3,3.1,15.4,5c2.2-0.3,2.9,1.7,5,1c-0.6-0.4-1.8-0.3-2.2-0.9c0.3,0,0.6,0,0.9,0c-0.1-0.6-1.1-0.2-1.3-0.7
				c1.9,0,2.4,1.2,4.3,1.2c0,0.2-0.2,0.3-0.1,0.6c2.7,0.6,5.2,2.1,8.1,2.1c-0.1-0.3-1,0.1-0.9-0.4c1-0.3,2.2,0.5,2.6-0.1
				c-2.3-0.5-5.6,0-7.1-1.3c2.6,0.5,5.3,0.9,8.1,1.2c-1.8-1.3-5.6-0.6-7.1-2.2c3.3,0.7,6.3,1.8,10.3,1.8c-0.1-0.6-1.3-0.1-1.8-0.4
				c0-0.2,0.6-0.5,0-0.4c-4.3,0.1-7.3-2.7-11.2-2.8c-1.9-0.1-3.3-0.2-4.9-1c1.2,0.1,2.2,0.9,3.5,0.4c-0.8-1.1-3.1-0.8-4.1-1.8
				c3.8,0.7,6.6,2.3,10.4,2.9c0.1,0.2,0.1,0.5,0.3,0.7c3,0.1,5.5,1.4,8.5,0.9c-0.6-0.2-1.4-0.2-1.9-0.4c5.6,0.5,11.6,0.5,16.9,1.3
				c-0.5,0-1.2-0.1-1.2,0.4c16.3,0.4,30.4-1.4,41.3-6.5c-0.1,0.5-1.7,0.9-1,1.2c1.1-0.7,1.2,0.2,2.1-0.4c-1.7,2.1-5.3,2.5-8.1,3.5
				c0.2-0.4,0.9-0.3,1-0.7c-1.7,0.6-3.9,0.6-5.1,1.6c4.8-0.4,10-2,13.8-4.3c0.6,1.7-1.4,1.3-1.5,2.8c1,0.2,1.1-1.2,1.8-0.9
				c-0.6,1.4-2.3,1.6-2.9,2.9c6-0.9,4.2-9.6,4.6-14.7C372.2,119.6,373.6,117.8,374.7,115.9z M205.6,68.8c-0.3,0.4-0.2,1.2-0.9,1.2
				C204.8,69.4,204.9,68.8,205.6,68.8z M204.3,70.4c0.5,1.5-0.8,2.4-1.3,3.4C202.8,72.7,204,71.6,204.3,70.4z M172.8,95.7
				c-0.4,0.4-0.6,1.1-0.9,1.6c-0.7-0.2-1.1-0.6-1.5-1c0.4-0.8,1-1.5,1.5-2.2c-0.8-0.5-0.6,0.9-1.5,0.7c1.2-2.5,2.9-4.4,4.4-6.6
				c-0.4-0.3-0.8,0.5-1,0.7c1.5-3.7,4.7-7.1,6.5-11c-1.4,1.1-1.8,3.2-3.5,4c1.2-2.1,2.4-4.2,3.5-6.3c-2.5,3.2-4.6,8-7.9,10.7
				c1.8-2.7,4.1-6.2,6-9.3c-3.2,2.3-4.8,7.5-8.4,10c1.7-2.3,3.2-6,5-8.7c0.3-0.4-0.6-0.3-0.1-0.4c1.7-4.6,5.4-8.6,6.6-13.4
				c0.2-0.7,0-1.5,0.3-2.2c1.1-3,3.4-5.7,5-8.5c1.8-3.1,2.6-6.3,4.1-9.4c2.2,1,4.2,2.3,7.2,2.5c0.5,1.2,2.3,1.6,4,1.2
				c-6.4,15-13.6,29.2-20.4,43.7C178.3,92.7,175.4,94.1,172.8,95.7z M198.1,58.8c-1.4,3.9-3.7,8.6-5.9,12.5
				c-0.2,0.4-0.5,1.5-0.9,1.2C193.6,68,195.6,63.1,198.1,58.8z M185.5,85.4c1.7-3.9,3.2-7.9,5.6-11.3c-2.1,6.2-5.8,12.1-8.4,18.4
				C182.1,89.6,184.5,87.7,185.5,85.4z M187.4,84.9c2.1-5,4.9-10.6,7.6-15.4C192.8,74.9,190.3,80,187.4,84.9z M202.1,101
				c0.5-0.9,2.6-1.4,3.4-2.4c-2.1,0.4-4,2.3-7.1,2.4c0.2-1.1,1-1.7,0.9-3.1c-0.9,0.5-0.4,2.4-1.6,2.6c0.2-2.5,1.5-4.4,2.4-6.3
				c0.9-2,1.8-3.9,2.6-6c-2.1,3.3-3.8,8.2-6,11.9c-0.3,0-0.7,0-1,0c1.9-4.1,3-8.6,5-12.6c0.8-1.7,2-2.6,2.4-4.7
				c-1-0.1-1,0.9-1.3,1.5c-2.2,4.3-4.7,9.5-6.6,14.1c-0.1-1.7,0.7-3.2,1.5-4.7c2-4,3.8-8.1,5.9-12.1c0.8,0.4,1.2,1.1,1.6,1.9
				c-0.8,1.1,0.1,2.4-0.9,3.5c-0.3,0.8,0.8-1,1-0.6c-0.8,4.2-3.3,6.7-4.6,10.4c2.2-2.6,3.3-6.2,4.9-9.4c3.1,1.5,5,4.3,7.6,6.3
				C209.6,97.1,205.7,99,202.1,101z M212.1,67.4c-0.1,0.8-1.3,0.8-0.6,1.6c-0.2,0-0.5,0-0.7,0c0,0.4,0.7,0.2,0.6,0.7
				c-0.6,0-0.6,0.5-1.2,0.4c0,0.3,0.5,0.1,0.6,0.3c-0.4,1.6-1.4,2.6-3.1,2.9c0.1-0.1,0.2-0.3,0.1-0.6c-0.6,0.4-0.7,1.3-1.8,1.2
				c1-1,1.8-2.2,2.2-3.7c0.5,0,1,0,1.5,0c-0.4-0.4-0.6-0.7-1.2-0.3c0.1-0.6,0.6-0.9,0.6-1.8c0.6,0.1,1,0.5,1.6,0.1
				c-0.1-0.2-0.2-0.5-0.6-0.4c0.3-0.5,0.4-1,0.7-1.5c-0.3-0.1-0.8,0.9-1.2,1.2c0.1-1.4,1.5-2.8,1.9-4.4c0.4,0.4-0.2,1.2-0.1,1.8
				c0.5-0.6,0.9-1.4,1.2-2.2c0.4,0.2-0.1,0.8-0.1,1c1.1-0.2,0.7-1.8,1.6-2.2c0,1.9-1.6,3.4-2.1,5.3c-0.3,0-0.6,0-0.9,0
				C211.3,67.2,211.8,67.2,212.1,67.4z M239.7,106.2c4.3,2,8.8,5.1,13.1,7.5C248.2,112,243.8,108.9,239.7,106.2z M244.1,107.8
				c-0.3-0.3,0-0.4,0-0.7c-2.7-0.7-4.5-2.4-6.3-4c3.9,1.6,7,4.3,10.9,6.5c2.3,1.3,4.5,2.5,6.8,3.8
				C251.4,112.4,248.4,109.1,244.1,107.8z M363.4,115c0.2,0.1,0.3,0.2,0.3,0.4c-1.5,1.3-3.7,2-6,2.5
				C359.5,116.8,361.6,116.1,363.4,115z M350.6,120.6c-1.6,0.7-3.6,0.9-5.6,1.2C346.5,121,348.6,120.9,350.6,120.6z M332.9,127.4
				l-10.2,0.7C325.2,126.6,329.4,127.5,332.9,127.4z M310,126.5c-0.1,0.2,0.2,0.8-0.1,0.7c-1.1-1-3.7-0.6-5.1-1.2
				c1,0.9,2.4,1,3.8,1.2c-0.4,0.5-1.6,0.7-2.4,0.4c0-0.2,0.3-0.1,0.3-0.3c-0.4-0.7-1.3,0-2.1-0.1c0.6,0.5,1.8,0.4,2.2,1
				c-3.3-0.2-6.8-1.4-9.9-2.4c0,0.5,0.7,0.4,1,0.6c-0.9,0.5-1.7-0.4-2.5-0.4c0.1-0.3,0.9-0.1,1,0c-0.7-1-2.6-0.7-3.4-1.6
				c0.7-0.1,0.9,0.2,1.5,0.3c-0.2-0.7-1.3-0.5-1.8-0.9c0.1-0.3,0.7-0.1,1-0.1c-0.2-0.5-1.2-0.1-1.3-0.7c0.9-0.2,1.8,0,2.5,0.4
				c0.4-0.1-0.1-0.3,0-0.6C300.7,123.3,304.3,125.9,310,126.5z M284.9,116.6c0-0.2,0-0.3,0.1-0.3c4.1-0.8,7.8,1.7,11.2,2.2
				c-3.9,0.1-8.4-0.5-11.6-1.6C284.6,116.8,284.7,116.7,284.9,116.6z M284.7,117.8c-1,0.3-2.5-0.1-3.1-0.7
				C282.6,116.8,284.1,117.3,284.7,117.8z M281.9,131.9c-0.5-0.2,2.5,0.3,2.9,0.6c1.4,0.1,2.3,0.6,3.5,0.7
				C286,133.6,284,132.4,281.9,131.9z M292.1,132.9c1.4,1.3,4.1,1.4,6.3,1.9c-3.3,0.8-5.5-1.9-9.1-1.8c-0.6,0-0.1-0.1-0.1-0.4
				c-2.9-0.3-5.7-0.8-8.4-1.6c0.1-0.3,0.5-0.4,0.6-0.7C285.2,130.9,288.5,132,292.1,132.9z M323.1,134.4c0.3,0.8,1.7-0.4,2.1,0.4
				c-4.5,0.3-10,0.2-14.1-0.3c0-0.7,1-0.6,1.5-0.4c-1.4-0.9-4-0.5-5.9-0.9c-0.1-0.6,0.9-0.2,1.3-0.3c-5.4-1.2-10.6-2.4-15.6-4
				c-0.2-0.2-0.3-0.6-0.4-0.9c-1.9,0-2.8-0.9-4.6-1c3.9-0.3,7.3,1.7,11,2.6c3.4,0.8,6.6,1.3,10.3,1.9c0.1-0.7-1-0.1-0.7-0.9
				c-8.1-0.6-14.3-3.1-20.9-5.3c4.6,0.1,8.3,2.1,12.6,2.6c5.1,0.7,9.6,4,16.2,2.9c0.4-0.1-1-0.6-0.6-0.7c12.7-0.2,25.7,0,36.9-1.6
				c0,0.5-0.6,0.4-0.7,0.7c0.6,0.2,1.9-0.3,1.9-0.7c1,0.3,1.8,0.2,2.8-0.1c-1.6,1.5-5.2,0.8-6.9,2.2c-0.5,0.2-0.4-0.2-0.6-0.3
				c-1.4,1.1-4.3,0.6-6.3,1c6.6,0.5,12-1.4,17.6-2.4c-1.3,0.8-3.1,1-4.7,1.5c0.5,0.4,1.4,0,1.9-0.1
				C348.2,134.1,335,133.6,323.1,134.4z M344.7,133.8c-2.6,0.5-5.8,0.5-8.7,0.7C338.5,133.9,341.9,134.1,344.7,133.8z M361.5,131.8
				c-7.4,2.6-17.2,3.9-26.9,4.4c-1.2,0.1-3.4,0.2-1.2,0c5-0.6,11-0.8,15.1-1.8c-0.4-0.2-1.5,0-2.1,0.1c1.1-0.7,2.8-0.7,4.4-0.9
				c1.1-0.2-0.8,0.3-1,0.6c4.8-0.5,10.1-1.9,14-3.8C363.5,131.3,362.3,131.5,361.5,131.8z"/>
			<path d="M355,137.5c0.9-0.2,2.1-0.2,2.6-0.9C356.5,136.7,355.5,136.8,355,137.5z"/>
			<path d="M315.6,139.4c1.1,0.5,4.5,0.8,6,0.1C319.8,139.4,317.5,139,315.6,139.4z"/>
			<path d="M323.3,139.9c0.3,0.9,2.2,0.2,3.2,0.4C326,139.6,324,140.3,323.3,139.9z"/>
			<path d="M328.8,140.3c0.4,0.1,2.8,0.6,3.4-0.1C331.1,140.2,329.7,140,328.8,140.3z"/>
			<path d="M174.4,80.6c0.5-0.3,0.8-0.8,1-1.3C174.9,79.5,174.4,79.8,174.4,80.6z"/>
			<path d="M315,133.2c-0.6,0-1.3,0-1.9,0C313.2,133.8,314.9,133.6,315,133.2z"/>
		</g>
		<g>
			<path d="M366.6,37.2c1.1-0.4,3.4,0.3,4.3-0.4c-11.8-0.9-17.8,5.9-23.1,13.2c-2.2,3.1-4.3,6.3-6.5,9.6c-2.2,3.3-4.1,7-6.5,9.7
				c-1.9,2.2-7.1,4.6-8.7,1c2,0.1,3.6-0.8,5.6-0.3c0.3-0.5-0.1-0.8,0.3-1.2c2.6-1.1,6.6-6.8,3.2-9.6c-1-0.8-2.8-1.1-4.7-0.7
				c-0.3-0.1,0.1-0.9-0.4-0.7c-3.1-0.3-6.1,0-8.4,1.2c-0.8,0.4-1.2,1.2-1.9,1.3c-0.9,0.1-2-0.5-2.8-1c-1.7,1.3-4.4,0.4-3.2-2.4
				c6.5-1.2,13.3-2.1,16.9-6.2c0.6-7.2-3.3-9.9-6.2-13.7c1.7-2.1,3.7-1.4,6-0.7c2.7,0.7,6.3,1.2,8.1,2.5c-0.1-0.9,1-0.6,1.6-0.9
				c3.6-3.6,1.2-9.8-3.4-10.9c-0.8-0.2-1.9,0.4-2.4-0.7c0.3,0.2,1.1,0.5,1.5,0.1c-0.5-1.4-1.6-2.7-2.8-2.9c-2.4-0.4-3,2.6-5.3,2.5
				c-1.5,2.3-4.6,2.8-8.5,2.6c-1.1-4.3-4.2-6.6-8.1-8.1c-0.5,0.1,0.4,0.6-0.2,0.7c-4.5-0.7-10.6,3.1-10.1,8.1c0.2,2.2,1.5,3.5,3.5,4
				c0.4,2.6,0.6,5.3,0.7,8.1c-2.7,0-4.7-0.8-6.8-1.5c-1.5-2.5-2.8-5.1-5.3-6.5c-1.7,0.6-2.9,1.8-5.3,1.8c-1.1,0.9-1.8,2.1-3.5,2.4
				c-1.1,1.3-1.8,3.1-1.5,5.3c0.6,4.3,4.5,8.2,7.8,10.6c3.8,2.8,9,3.9,14.4,4c0,2.3,0.8,4.3,0.4,6c-0.4,1.9-2.5,3.1-2.1,5.6
				c-2.2,1-4.7,2.5-7.1,2.8c0.1-0.8,0.7-0.1,1-0.3c0.4-0.2,0.9-0.7,1.6-1c2.5-1,4.7-1.3,4.3-4.7c-0.9-6.6-9.4-12.7-16.2-9.1
				c0,0.6,0,1.1-0.1,1.5c-2,1-3.5,3.2-3.1,5.9c0.5,3.7,3.7,6,6.2,7.5c-1.4,0.9-3.1,0.2-4.7,0.4c-1.6,0.3-3,1.9-4.4,1.5
				c-1.6,2.6-5.5,2.9-5.3,7.4c2,3.8,3.7,9.9,9.3,9.3c1.4-0.2,3.2-1.6,4-2.6c1.6-2,2.1-5.1,2.4-8.1c1.2-1.1,2.4-2.3,4.3-2.8
				c-0.1,0.7,0.3,1.1-0.1,1.3c-0.1-0.2-0.5-0.8-0.7-0.3c0.2,1,1.7,1.5,1.5,2.5c-1-0.2-1.2-1.4-2.5-1.3c0.9,0.9,1.7,1.7,2.5,2.6
				c-0.4,0.1-0.9,0.4-0.6,0.7c2,1.5,4.4,2.6,6.2,4.3c1,4.7,3.7,8.6,8.7,9.1c0.8,0.1,1.8-0.1,2.6,0c0.7,0.1,1.4,0.5,2.2,0.3
				c3.5-0.8,1.7-8.8,1.5-12.2c6.3,2.7,16.1,9.2,24.4,4.4c1-5.4,3.8-9,4.3-15c0.2-0.6-0.7,0-0.4-0.6c1.1-2,1.6-4.6,2.9-6.3
				c6.5,9.6-0.3,24-10.3,25c0.2,2.2-1.9,3.4-3.5,4.6c-1.5-0.7-2.9,1.3-4.4,1.6c-0.5,0.3,0.4,0.3,0,0.4c-5.3,2-14.6,1.2-20.3,3.2
				c5.9-1,13.6-0.3,18.2-2.5c1.2,0.9,4-1.1,5.4-0.9c-1.4,0.5-2.8,1-4.1,1.5c1.7,0.4,3.4-1.3,4.9-1.2c-0.7,0.8-0.4,0.7-0.7,0.1
				c-0.6,0.4-1.5,0.7-2.1,1.2c-8.7,1.9-20.4,3.5-30.6,1.9c2.1,0.2,5.3,0.4,6.8-0.4c-1.5,0.2-3.6,0.4-4.3-0.6
				c-1.1,0.7-3.2,0.7-4.6,0.3c1.1-0.1,2.7,0.3,3.4-0.3c-1.5,0.1-3.4-0.3-4.4,0.3c0.2-0.2,0.2-0.7-0.3-0.6c-4.6-0.1-8.4-1-12.2-1.9
				c-0.3-0.2-0.3-0.6-0.6-0.7c-9.2-3.3-16.4-8.5-17.5-19.9c3.2-0.2,5.2-0.7,7.6-2.4c1.5-1,3.6-2.9,3.5-4.3c-0.1-0.9-1.3-1.5-1.6-2.4
				c-2.5-1.5-7.9-1.4-10.1-0.3c0.1-1.1-0.1-2.4,0.1-3.2c1.4-1.1,2.8-2.3,4.4-3.5c2.6-2,5.9-2.7,6.8-5.9c-1.6-3.3-4.3-6.8-9.4-5.6
				c-1-1.5-3.3-1.6-4.7-2.6c2.5-0.9,4-3.4,6.8-4c0.8-0.2,1.7,0.1,2.6-0.4c5.5,1.5,7.4-2.9,7.2-7.4c-0.2-3.4-3.4-7.4-5.7-8.7
				c-4.7-2.5-11.8,0.6-14.3-4.3c-0.9,0.2-1.6,1.2-2.6,0.4c-0.4,2.2-3.2,1.7-3.7,3.5c-0.3,1.3,0.4,3.1,0.9,4.4c1.5,4,4.6,6.9,7.8,8.2
				c-4.5,4.7-8.4,10-13.5,14.1c-2,3.2-1.4,9,2.2,10.1c2.2,0.7,4.4-0.4,6.8-0.7c0.6,0.4,0.9,1,1.2,1.8c-2.9,2.3-3.9,6.4-8.7,6.9
				c-0.3,0.4-0.1,1.2-0.6,1.3c-0.6,0.1-1.4-0.1-1.8,0.1c-0.5,0.2-0.3,1.1-0.7,1.3c-2.9,0.2-3,3.8-2.6,6.8c5.6-0.4,10.1-1.8,15.6-2.4
				c0,1.2,0,2.4,0,3.5c-0.4,0.2-0.9,0.4-1.5,0.4c0,2.2-2.7,2.3-3.2,3.8c-0.8,2.1,1,5.1,2.1,7.2c5.6,11.1,19.2,20.1,34,20.9
				c19,1,38,0.3,51.5-5.1c2.6-1,5.3-1.9,6.8-3.8c-1-0.7,0.2-2.2,0.9-2.5c-0.8,0.1-0.1-0.4-0.3-0.9c2.3-1.2,2.3-4.5,2.8-7.5
				c0.3-0.4,0.8-0.6,1-1c-0.6-1.6,1.4-3.3,0.4-5.1c-0.4,1.1-0.4,2.6-1.3,3.2c3.2-9.8-0.6-20.7-5-26.6c1.8-3.7,3.8-7.2,5-11.5
				c-1.7,2.2-2.9,5.5-4.3,8.2c-0.2,0.5-1.1,2.7-1.6,2.6c-1.4,0,0.5-2,0.6-2.2c1.6-2.8,3-6.9,5.3-10.7c0.9-1.5,2.3-3.1,3.4-4.7
				c1.2-1.8,1.8-3.7,3.1-5c3.2-3.1,8.8-4.3,14-3.4C371.9,37.5,368.9,37.7,366.6,37.2z M316.1,31.9c0.4-0.1,0.9,0.6,1.2,0.1
				c0-0.1,0-0.3,0-0.4c4-0.4,4.2,2.9,5.6,5.1c-4.4-0.2-5.4,3.1-9,3.8C313.6,37.3,314.5,33.9,316.1,31.9z M305.8,81.8
				c-4.9,1.1-8.4-1.5-9.7-5c2.2-2.2,5.7-3.9,8.5-5C307.4,73.1,305.9,78.6,305.8,81.8z"/>
		</g>
		<path class="st1" d="M287.1,58.2c0,0,0.2-1.1-0.1-1.6c0,0,3.9-2,8.1-0.4c4.2,1.6,7.1,4.7,8.2,8.8c0,0,0.8,3.2-1.2,4.2
			c-2,1-2.8,1.1-3.3,1.4c-0.4,0.3-1.3,1.2-1.7,0.9c-0.4-0.3-0.1,1.9-7.4-0.3C282.7,69.3,282.3,59.5,287.1,58.2z"/>
	</g>
	<g>
		<g>
			<path d="M44.8,34.8C20.1,34.8,0,54.9,0,79.7c0,24.8,20.1,44.8,44.8,44.8s44.8-20.1,44.8-44.8C89.7,54.9,69.6,34.8,44.8,34.8z
				 M44.8,114.1c-19,0-34.5-15.4-34.5-34.5c0-19,15.4-34.5,34.5-34.5c19,0,34.5,15.4,34.5,34.5C79.3,98.7,63.9,114.1,44.8,114.1z"/>
		</g>
		<g>
			<g>
				<path d="M46,52.9c4.4,0,8.1,4.3,9,9c0.1-0.7,0.2-1.4,0.2-2.2c0-5.8-4.1-10.4-9.2-10.4c-5.1,0-9.2,4.7-9.2,10.4
					c0,0.7,0.1,1.5,0.2,2.2C37.9,57.1,41.6,52.9,46,52.9z"/>
			</g>
			<path d="M41.2,62.5c0,0-1,2.3,1.3,4c2.3,1.7,9.4,1.6,8.3-6.2c0,0-0.1,4.8-4.5,5.4C41.9,66.3,41.2,62.5,41.2,62.5z"/>
			<path d="M32.9,54.2c0,0-5.2,5.5-4.2,10.1c1,4.6,6.8,8.4,12.8,7.6C41.6,72,28.6,68.9,32.9,54.2z"/>
			<path d="M59.6,59.9c0,0,5.2,4.4,4.2,8.1c-1,3.7-6.8,6.7-12.8,6.1C51,74.2,64,71.7,59.6,59.9z"/>
			<path d="M25.7,64.7c0,0-3.7,6.1-0.5,9.8c3.2,3.6,9.4,5.1,14.3,5.2C39.5,79.7,25.4,74.3,25.7,64.7z"/>
			<path d="M50.3,77c0,0-2.5,4.5-11.9,4c0,0,2.9,2.6,6.8,2.3C49.1,83,52,78.4,50.3,77z"/>
			<path d="M66.1,68.9c0,0,1.8,8-13.6,12.5C52.5,81.4,74.3,83.5,66.1,68.9z"/>
			<path d="M68.8,77.6c0,0-2.4,7.9-16.7,12.5C52.1,90.1,73.2,90.8,68.8,77.6z"/>
			<path d="M47.8,97.5c0,0,7,0.8,10.7-3.9C58.5,93.6,56.9,101.8,47.8,97.5z"/>
			<path d="M67,90.2c0,0-3.3,9.3-18,13.6C49,103.8,67.6,107.3,67,90.2z"/>
			<path d="M43.3,108.7c0,0,7.1,1,9.8-3.5C53.1,105.2,52.3,113.2,43.3,108.7z"/>
			<path d="M45.9,103.9c0,0-12.9,0.1-19.4-8.5C26.5,95.4,26.2,110.3,45.9,103.9z"/>
			<path d="M36,97c0,0,9.1,0.3,11.5-3.3C47.5,93.7,43.8,102.1,36,97z"/>
			<path d="M20.4,82.8c0,0,8.4,10.4,21,11.4C41.4,94.2,18.7,98.5,20.4,82.8z"/>
			<path d="M22.7,75.3c0,0,6.3,10.6,18.6,11.9C41.2,87.2,18.9,88.9,22.7,75.3z"/>
			<path d="M44,88.7c0,0,9-0.9,10.3-4.5C54.3,84.2,52.7,92.3,44,88.7z"/>
		</g>
	</g>
</g>
</svg>
